<svg width="171.533752" height="176.119400" viewBox="0 0 171.534 176.119" fill="none" xmlns="http://www.w3.org/2000/svg" xmlns:xlink="http://www.w3.org/1999/xlink">
    <path id="Vector" d="M35.52 93.54L35.56 93.51C37.18 91.89 39.11 90.6 41.23 89.72C43.34 88.84 45.61 88.39 47.91 88.39C50.2 88.39 52.47 88.84 54.59 89.72C56.71 90.6 58.63 91.89 60.25 93.51L60.34 93.59L73.44 107.15L104.76 75.84C108.04 72.57 112.48 70.74 117.11 70.74C121.73 70.74 126.17 72.57 129.45 75.84L171.53 117.98L171.53 31.44C171.53 14.1 157.42 0 140.09 0L31.44 0C14.1 0 0 14.1 0 31.44L0 129.68L35.52 93.54ZM52.88 33.59C55.37 33.59 57.8 34.33 59.86 35.71C61.93 37.09 63.54 39.05 64.49 41.35C65.44 43.64 65.69 46.17 65.21 48.61C64.72 51.05 63.52 53.28 61.77 55.04C60.01 56.8 57.77 58 55.33 58.48C52.9 58.97 50.37 58.72 48.07 57.77C45.78 56.81 43.82 55.2 42.44 53.14C41.06 51.07 40.32 48.64 40.32 46.16C40.32 42.82 41.64 39.63 44 37.27C46.35 34.92 49.55 33.59 52.88 33.59Z" fill="#BBBBBB" fill-opacity="1.000000" fill-rule="nonzero"/>
    <path id="Vector" d="M50.5 103.2C49.8 102.53 48.87 102.15 47.9 102.15C46.93 102.15 45.99 102.54 45.3 103.22L0.29 148.98C2.39 164.3 15.56 176.11 31.44 176.11L120.98 176.11L50.5 103.2Z" fill="#BBBBBB" fill-opacity="1.000000" fill-rule="nonzero"/>
    <path id="Vector" d="M119.73 85.56C119.03 84.88 118.09 84.49 117.11 84.49C116.12 84.49 115.18 84.88 114.48 85.56L83.01 117.05L140.1 176.11C157.44 176.11 171.53 162.01 171.53 144.67L171.53 137.46L119.73 85.56Z" fill="#BBBBBB" fill-opacity="1.000000" fill-rule="nonzero"/>
</svg>
