<svg width="16" height="16" viewBox="0 0 16 16" fill="none" xmlns="http://www.w3.org/2000/svg">
    <path fill-rule="evenodd" clip-rule="evenodd" d="M8.75 7.56699V4.25C8.75 3.836 8.414 3.5 8 3.5C7.586 3.5 7.25 3.836 7.25 4.25V7.99163C7.24868 8.12397 7.28244 8.25475 7.3475 8.36985C7.4206 8.49405 7.51698 8.58868 7.63225 8.65371L10.8726 10.5245C11.2311 10.7315 11.6901 10.6085 11.8971 10.25C12.1041 9.89147 11.9811 9.43248 11.6226 9.22548L8.75 7.56699ZM8 0.5C12.1422 0.5 15.5 3.85776 15.5 8C15.5 12.1422 12.1422 15.5 8 15.5C3.85776 15.5 0.5 12.1422 0.5 8C0.5 3.85776 3.85776 0.5 8 0.5Z" fill="#70232F"/>
</svg>
