<svg width="14.000000" height="13.125000" viewBox="0 0 14 13.125" fill="none" xmlns="http://www.w3.org/2000/svg">
    <path id="Subtract" d="M12.2975 5.45621C12.0053 5.54004 11.6957 5.58508 11.375 5.58508C9.60309 5.58508 8.16669 4.20981 8.16669 2.51328C8.16669 2.1427 8.23523 1.78748 8.36078 1.45853C7.70709 1.23737 7.00366 1.117 6.27081 1.117C2.80762 1.117 0 3.8049 0 7.121C0 10.4371 2.80762 13.125 6.27081 13.125C9.73407 13.125 12.5417 10.4371 12.5417 7.121C12.5417 6.54337 12.4565 5.98483 12.2975 5.45621ZM8.72998 7.79468L5.06409 7.79468L5.06409 10.1347L4.36572 10.1347L4.36572 4.78604L8.72998 4.78604L8.72998 7.79468Z" clip-rule="evenodd" fill="#70232F" fill-opacity="1.000000" fill-rule="evenodd"/>
    <path id="Ellipse 1" d="M11.37 5.02C12.82 5.02 14 3.9 14 2.51C14 1.12 12.82 0 11.37 0C9.92 0 8.75 1.12 8.75 2.51C8.75 3.9 9.92 5.02 11.37 5.02ZM10.2 1.95L9.62 2.51L11.08 3.9L13.12 1.95L12.54 1.39L11.08 2.79L10.2 1.95Z" fill="#70232F" fill-opacity="1.000000" fill-rule="evenodd"/>
</svg>
