<svg width="77.671936" height="85.331421" viewBox="0 0 77.6719 85.3314" fill="none" xmlns="http://www.w3.org/2000/svg">
    <defs>
        <filter id="filter_355_785_dd" x="0.000000" y="0.000000" width="77.671936" height="85.331421" filterUnits="userSpaceOnUse" color-interpolation-filters="sRGB">
            <feFlood flood-opacity="0" result="BackgroundImageFix"/>
            <feColorMatrix in="SourceAlpha" type="matrix" values="0 0 0 0 0 0 0 0 0 0 0 0 0 0 0 0 0 0 127 0" result="hardAlpha"/>
            <feOffset dx="0" dy="4"/>
            <feGaussianBlur stdDeviation="3.33333"/>
            <feComposite in2="hardAlpha" operator="out" k2="-1" k3="1"/>
            <feColorMatrix type="matrix" values="0 0 0 0 0.96863 0 0 0 0 0.8549 0 0 0 0 0.67059 0 0 0 0.5 0"/>
            <feBlend mode="normal" in2="BackgroundImageFix" result="effect_dropShadow_1"/>
            <feBlend mode="normal" in="SourceGraphic" in2="effect_dropShadow_1" result="shape"/>
        </filter>
    </defs>
    <g filter="url(#filter_355_785_dd)">
        <path id="Vector" d="M63.82 45.87L42.68 58.08L29.19 65.86L28.97 65.99L21.53 70.28C16.4 73.24 10 69.55 10 63.62L10 14.79C10 8.87 16.4 5.17 21.53 8.13L29.77 12.89L30.84 13.51L42.68 20.34L47.15 22.92L47.61 23.19L63.82 32.55C68.95 35.51 68.95 42.91 63.82 45.87Z" fill="#681D29" fill-opacity="1.000000" fill-rule="nonzero"/>
        <path id="Vector" d="M33.22 48.19C32.25 48.39 30.66 48.51 28.45 47.82C27.76 45.61 27.88 44.02 28.08 43.06C28.98 38.7 33.72 36.04 40 36.27C40.23 42.56 37.58 47.29 33.22 48.19Z" fill="#F7DAAB" fill-opacity="1.000000" fill-rule="nonzero"/>
        <path id="Vector" d="M37.53 52.71C36.9 52.67 35.9 52.49 34.7 51.73C34.76 50.31 35.18 49.39 35.51 48.85C37 46.41 40.46 45.61 44.24 46.75C43.02 50.5 40.38 52.88 37.53 52.71Z" fill="#2F050F" fill-opacity="1.000000" fill-rule="nonzero"/>
        <path id="Vector" d="M50.01 49.83C49.46 49.75 48.59 49.52 47.5 48.72C47.47 47.37 47.78 46.52 48.03 46.03C49.18 43.8 52.13 43.24 55.48 44.56C54.65 48.06 52.5 50.16 50.01 49.83Z" fill="#D86B79" fill-opacity="1.000000" fill-rule="nonzero"/>
        <path id="Vector" d="M62.61 46.49C61.96 46.92 60.83 47.48 58.95 47.64C57.67 46.26 57.21 45.08 57.02 44.33C56.17 40.93 58.75 37.61 63.49 35.91C65.84 40.35 65.53 44.55 62.61 46.49Z" fill="#2F050F" fill-opacity="1.000000" fill-rule="nonzero"/>
        <path id="Vector" d="M50.72 41.53C50.15 41.66 49.22 41.75 47.91 41.37C47.47 40.07 47.52 39.14 47.62 38.57C48.08 36 50.82 34.39 54.52 34.46C54.75 38.15 53.26 40.96 50.72 41.53Z" fill="#D86B79" fill-opacity="1.000000" fill-rule="nonzero"/>
        <path id="Vector" d="M46.59 35.06C46.14 35.43 45.35 35.93 44.01 36.19C43.03 35.23 42.65 34.37 42.49 33.82C41.74 31.31 43.46 28.62 46.79 26.99C48.66 30.19 48.61 33.38 46.59 35.06Z" fill="#D86B79" fill-opacity="1.000000" fill-rule="nonzero"/>
        <path id="Vector" d="M38.84 31.67C38.47 32.09 37.78 32.69 36.51 33.15C35.38 32.41 34.85 31.67 34.58 31.17C33.39 28.93 34.59 26.12 37.57 24.05C39.99 26.75 40.52 29.76 38.84 31.67Z" fill="#D86B79" fill-opacity="1.000000" fill-rule="nonzero"/>
        <path id="Vector" d="M28.31 30.85C27.77 30.98 26.88 31.09 25.65 30.77C25.26 29.55 25.33 28.66 25.43 28.12C25.93 25.66 28.56 24.06 32.06 24.02C32.2 27.52 30.73 30.23 28.31 30.85Z" fill="#D86B79" fill-opacity="1.000000" fill-rule="nonzero"/>
        <path id="Vector" d="M25.9 21.34C25.35 21.07 24.55 20.55 23.77 19.44C24.34 18.2 25.03 17.54 25.52 17.19C27.7 15.58 31.03 16.12 33.93 18.51C31.5 21.39 28.33 22.52 25.9 21.34Z" fill="#D86B79" fill-opacity="1.000000" fill-rule="nonzero"/>
        <path id="Vector" d="M44.33 55.3C43.95 54.84 43.44 54.02 43.19 52.66C44.18 51.68 45.06 51.3 45.63 51.14C48.22 50.41 50.96 52.2 52.61 55.61C49.31 57.47 46.03 57.37 44.33 55.3Z" fill="#D86B79" fill-opacity="1.000000" fill-rule="nonzero"/>
        <path id="Vector" d="M36.77 56.63C36.79 56.03 36.95 55.08 37.65 53.95C38.98 54.02 39.84 54.43 40.35 54.76C42.64 56.2 43.44 59.5 42.42 63.09C38.9 61.88 36.65 59.34 36.77 56.63Z" fill="#D86B79" fill-opacity="1.000000" fill-rule="nonzero"/>
        <path id="Vector" d="M30.58 54.06C30.78 53.56 31.19 52.81 32.13 52.03C33.28 52.42 33.93 52.98 34.29 53.37C35.92 55.15 35.69 58.12 33.76 60.87C30.98 58.99 29.71 56.3 30.58 54.06Z" fill="#D86B79" fill-opacity="1.000000" fill-rule="nonzero"/>
        <path id="Vector" d="M22.3 44.67C21.97 45.18 21.34 45.95 20.07 46.64C18.76 46.02 18.08 45.3 17.72 44.8C16.12 42.57 16.95 39.34 19.78 36.63C22.75 39.17 23.77 42.35 22.3 44.67Z" fill="#D86B79" fill-opacity="1.000000" fill-rule="nonzero"/>
        <path id="Vector" d="M15.81 47.23C15.77 47.78 15.59 48.63 14.9 49.68C13.64 49.69 12.83 49.36 12.35 49.1C10.21 47.92 9.54 45 10.61 41.73C13.93 42.63 16.01 44.8 15.81 47.23Z" fill="#2F050F" fill-opacity="1.000000" fill-rule="nonzero"/>
        <path id="Vector" d="M15.35 54.09C15.63 53.86 16.13 53.55 16.99 53.39C17.64 53.97 17.91 54.5 18.03 54.84C18.58 56.37 17.53 58.02 15.42 59.02C14.13 57.07 14.09 55.12 15.35 54.09Z" fill="#2F050F" fill-opacity="1.000000" fill-rule="nonzero"/>
        <path id="Vector" d="M18.86 57.54C19.17 57.28 19.73 56.93 20.7 56.75C21.43 57.41 21.73 58 21.87 58.38C22.48 60.1 21.3 61.95 18.93 63.08C17.49 60.89 17.44 58.69 18.86 57.54Z" fill="#2F050F" fill-opacity="1.000000" fill-rule="nonzero"/>
        <path id="Vector" d="M22.21 62.51C22.44 62.32 22.86 62.06 23.57 61.93C24.11 62.41 24.33 62.84 24.43 63.13C24.88 64.39 24.01 65.76 22.27 66.58C21.2 64.97 21.17 63.36 22.21 62.51Z" fill="#2F050F" fill-opacity="1.000000" fill-rule="nonzero"/>
        <path id="Vector" d="M25.89 61.86C25.62 61.69 25.22 61.36 24.86 60.68C25.17 59.98 25.53 59.61 25.78 59.42C26.92 58.55 28.58 58.97 29.99 60.47C28.71 62.07 27.09 62.64 25.89 61.86Z" fill="#F7DAAB" fill-opacity="1.000000" fill-rule="nonzero"/>
        <path id="Vector" d="M23.72 57.21C23.42 57.02 22.97 56.64 22.55 55.87C22.9 55.07 23.32 54.65 23.61 54.43C24.9 53.44 26.79 53.93 28.39 55.62C26.94 57.45 25.09 58.09 23.72 57.21Z" fill="#F7DAAB" fill-opacity="1.000000" fill-rule="nonzero"/>
        <path id="Vector" d="M27.58 12.49C27.5 12.81 27.3 13.32 26.73 13.95C25.88 13.97 25.36 13.79 25.07 13.64C23.73 12.98 23.56 11.26 24.59 9.31C26.74 9.79 27.93 11.04 27.58 12.49Z" fill="#2F050F" fill-opacity="1.000000" fill-rule="nonzero"/>
        <path id="Vector" d="M32.71 11.15C32.44 11.39 31.94 11.73 31.02 11.97C30.18 11.49 29.79 11.04 29.59 10.73C28.71 9.37 29.57 7.73 31.74 6.58C33.53 8.26 33.93 10.07 32.71 11.15Z" fill="#D86B79" fill-opacity="1.000000" fill-rule="nonzero"/>
        <path id="Vector" d="M38.69 11.06C38.36 11.25 37.78 11.49 36.81 11.53C36.14 10.83 35.89 10.25 35.78 9.88C35.32 8.23 36.62 6.7 39.06 6C40.31 8.19 40.18 10.2 38.69 11.06Z" fill="#F7DAAB" fill-opacity="1.000000" fill-rule="nonzero"/>
        <path id="Vector" d="M43.91 13.96C43.48 14 42.8 13.97 41.89 13.56C41.74 12.58 41.89 11.91 42.04 11.51C42.69 9.7 44.88 8.81 47.55 9.24C47.26 11.93 45.83 13.8 43.91 13.96Z" fill="#F7DAAB" fill-opacity="1.000000" fill-rule="nonzero"/>
        <path id="Vector" d="M47.92 18.02C47.51 17.98 46.85 17.83 46.02 17.27C45.95 16.26 46.15 15.62 46.32 15.25C47.09 13.56 49.25 13.06 51.78 13.95C51.28 16.58 49.77 18.2 47.92 18.02Z" fill="#F7DAAB" fill-opacity="1.000000" fill-rule="nonzero"/>
        <path id="Vector" d="M48.49 22.86C48.22 22.62 47.83 22.16 47.53 21.31C47.99 20.53 48.47 20.16 48.78 19.97C50.2 19.13 52.01 19.91 53.35 21.89C51.64 23.57 49.72 23.97 48.49 22.86Z" fill="#F7DAAB" fill-opacity="1.000000" fill-rule="nonzero"/>
        <path id="Vector" d="M60.66 35.3C60.5 35.73 60.13 36.42 59.21 37.26C57.95 37.27 57.22 37.01 56.81 36.8C54.94 35.86 54.93 33.52 56.72 30.9C59.82 31.61 61.39 33.35 60.66 35.3Z" fill="#D86B79" fill-opacity="1.000000" fill-rule="nonzero"/>
        <path id="Vector" d="M20 53.12C19.66 52.9 19.16 52.47 18.69 51.61C19.08 50.72 19.55 50.25 19.87 50.01C21.31 48.9 23.43 49.44 25.23 51.34C23.6 53.38 21.53 54.1 20 53.12Z" fill="#F7DAAB" fill-opacity="1.000000" fill-rule="nonzero"/>
        <path id="Vector" d="M27.68 34.17C28.2 34.06 29.06 33.98 30.25 34.33C30.6 35.51 30.53 36.37 30.41 36.9C29.9 39.25 27.33 40.73 23.95 40.66C23.87 37.27 25.33 34.7 27.68 34.17Z" fill="#2F050F" fill-opacity="1.000000" fill-rule="nonzero"/>
        <path id="Vector" d="M22.45 30.74C22.99 30.93 23.82 31.35 24.69 32.33C24.31 33.58 23.73 34.3 23.31 34.7C21.44 36.51 18.23 36.37 15.19 34.4C17.13 31.35 19.99 29.88 22.45 30.74Z" fill="#2F050F" fill-opacity="1.000000" fill-rule="nonzero"/>
        <path id="Vector" d="M20.27 25.38C20.75 25.8 21.44 26.55 21.91 27.84C20.96 28.84 20.03 29.25 19.42 29.44C16.66 30.3 13.36 28.75 11.05 25.58C14.43 23.59 18.08 23.49 20.27 25.38Z" fill="#2F050F" fill-opacity="1.000000" fill-rule="nonzero"/>
        <path id="Vector" d="M21.91 18.34C21.88 19.1 21.67 20.32 20.72 21.89C18.89 22.1 17.7 21.78 16.99 21.49C13.83 20.19 12.7 16.24 14.08 11.52C18.93 12.25 22.06 14.92 21.91 18.34Z" fill="#F7DAAB" fill-opacity="1.000000" fill-rule="nonzero"/>
        <path id="Vector" d="M48.81 45.26C48.45 49.29 44.67 53.08 40.55 54.07C33.16 55.86 28.85 47.65 21.56 48.75C18.58 49.2 14.34 51.33 10 59.76C10 58.78 10 57.81 10 56.83C14.12 49.68 18.1 47.6 21.19 47.19C29.01 46.16 33.9 55.48 40.74 53.34C44.23 52.24 46.88 48.57 47.16 45.08C47.51 40.77 44.2 37.01 41.29 35.17C34.93 31.16 29.27 35.58 24.86 31.5C21.26 28.16 22.13 22.53 22.2 22.14C22.88 18.16 25.86 14.6 29.77 12.89C31.64 12.07 33.73 11.68 35.87 11.86C41.73 12.36 46.67 17.03 47.61 23.19L47.15 22.92C45.96 17.19 41.25 13.01 35.87 12.69C34.12 12.58 32.41 12.89 30.84 13.51C26.82 15.09 23.72 18.71 23.3 22.6C23.25 23.09 22.89 26.98 25.6 29.85C29.45 33.94 34.45 30.6 41.01 34.16C44.5 36.05 49.25 40.34 48.81 45.26Z" fill="#D86B79" fill-opacity="1.000000" fill-rule="nonzero"/>
        <path id="Vector" d="M29.19 65.86L28.97 65.99C26.86 64.72 25.57 63.35 24.77 62.33C22.75 59.75 22.95 58.1 20.64 55.63C19.47 54.39 18.11 52.93 16.42 53.06C14.99 53.18 13.98 54.38 12.38 56.28C11.25 57.62 10.48 58.87 10 59.76C10 58.75 10 57.74 10 56.73C10.16 56.43 10.39 56.01 10.73 55.54C11.11 55.01 13.35 51.92 16.23 51.87C18.75 51.83 20.58 54.13 21.56 55.36C23.52 57.83 23.12 59.35 24.95 61.97C26.34 63.95 28.03 65.16 29.19 65.86Z" fill="#F7DAAB" fill-opacity="1.000000" fill-rule="nonzero"/>
        <g style="mix-blend-mode:multiply">
            <path id="Vector" d="M23.22 69.31L21.53 70.28C16.4 73.24 10 69.54 10 63.62L10 14.79C10 8.87 16.4 5.17 21.53 8.13L23.22 9.11C19.51 9.18 16.14 12.17 16.14 16.32L16.14 62.09C16.14 66.25 19.51 69.23 23.22 69.31Z" fill="#B4B4B4" fill-opacity="1.000000" fill-rule="nonzero"/>
        </g>
    </g>
</svg>
