<svg width="13.719788" height="11.259094" viewBox="0 0 13.7198 11.2591" fill="none" xmlns="http://www.w3.org/2000/svg">
    <path id="Vector" d="M1.78 0.04C1.74 0.08 1.73 0.13 1.75 0.39C1.79 1.3 1.79 1.44 1.76 1.49C1.73 1.57 1.65 1.56 1.5 1.48C1.43 1.44 1.35 1.42 1.32 1.42C1.21 1.44 1.21 1.5 1.36 2.17L1.51 2.82L1.52 3.59L1.54 4.35L1.64 4.62C1.78 5.01 1.83 5.12 1.99 5.38C2.17 5.65 2.44 5.92 2.68 6.08C2.84 6.18 2.86 6.21 2.86 6.28C2.86 6.45 2.86 6.46 2.58 6.46C2.12 6.46 1.77 6.58 1.5 6.82C1.43 6.89 1.09 7.31 0.76 7.75C0 8.77 0 8.77 0 9.56C0 10.06 0.03 10.25 0.16 10.51C0.3 10.8 0.65 11.09 0.95 11.18L1.01 11.2L1.01 10.69C1.01 10.26 1.02 10.16 1.06 10.1C1.2 9.86 1.56 9.91 1.63 10.18C1.64 10.23 1.66 10.5 1.66 10.76L1.66 11.25L3.8 11.25L5.94 11.25L5.95 10.69L5.96 10.12L6.06 10.03C6.18 9.92 6.33 9.91 6.44 10C6.58 10.11 6.59 10.16 6.59 10.72L6.59 11.24L6.73 11.22C6.92 11.2 7.22 11.05 7.4 10.88L7.55 10.74L8.76 10.74L9.97 10.74L9.97 10.32C9.97 9.89 9.97 9.88 10.03 9.82C10.12 9.73 10.26 9.73 10.36 9.82L10.44 9.88L10.44 10.3L10.46 10.72L10.56 10.71C10.84 10.66 11.17 10.4 11.3 10.11C11.36 9.98 11.38 9.91 11.38 9.67L11.39 9.39L11.21 9.36C10.63 9.3 10.06 9.02 9.64 8.58C8.83 7.73 8.69 6.46 9.3 5.46C9.45 5.21 9.87 4.77 10.07 4.66L10.18 4.59L10.18 4.14C10.17 3.69 10.17 3.68 10.09 3.52C9.99 3.31 9.82 3.15 9.6 3.04L9.42 2.96L8.72 2.95L8.01 2.94L7.86 2.74C7.69 2.53 7.62 2.49 7.57 2.6C7.52 2.71 7.45 2.69 7.19 2.47C6.86 2.21 6.87 2.21 6.81 2.25C6.78 2.28 6.77 2.36 6.79 2.83C6.81 3.46 6.81 3.45 6.59 3.35C6.47 3.29 6.45 3.29 6.41 3.32C6.38 3.36 6.39 3.43 6.5 3.92C6.62 4.47 6.62 4.48 6.62 4.98L6.62 5.49L6.71 5.76C6.82 6.08 6.91 6.25 7.09 6.47C7.2 6.61 7.44 6.81 7.59 6.9C7.63 6.92 7.64 6.95 7.62 7.02L7.6 7.12L7.32 7.13C7.05 7.14 7.01 7.15 6.84 7.23L6.65 7.33L6.46 7.1C6.09 6.64 5.79 6.49 5.27 6.48C5.01 6.48 5 6.48 4.97 6.28C4.95 6.18 4.95 6.17 5.08 6.09C5.26 5.98 5.55 5.7 5.7 5.49C5.87 5.27 6.01 4.99 6.14 4.61L6.25 4.3L6.25 3.17C6.25 2.06 6.25 2.04 6.19 1.87C6.03 1.41 5.64 1.07 5.19 0.99C5.09 0.97 4.68 0.96 4.21 0.96L3.39 0.96L3.2 0.71C2.93 0.37 2.86 0.33 2.78 0.51C2.71 0.66 2.66 0.64 2.26 0.31C2.06 0.13 1.88 0 1.86 0C1.84 -0.01 1.8 0.01 1.78 0.04Z" fill="#70232F" fill-opacity="1.000000" fill-rule="nonzero"/>
    <path id="Vector" d="M11.34 4.66C11.21 4.7 11.05 4.87 11.02 5.02C11 5.09 10.99 5.38 10.99 5.74L10.99 6.35L10.34 6.35C9.56 6.35 9.48 6.37 9.35 6.62C9.23 6.85 9.32 7.16 9.53 7.29C9.63 7.35 9.65 7.35 10.31 7.36L10.98 7.37L10.99 8.03C11 8.68 11 8.7 11.07 8.81C11.22 9.09 11.59 9.16 11.84 8.94C12 8.8 12 8.76 12 8.02L12 7.37L12.65 7.37C13.17 7.37 13.31 7.36 13.39 7.33C13.81 7.15 13.83 6.61 13.42 6.4C13.33 6.35 13.26 6.35 12.66 6.35L12.01 6.35L12.01 5.69C12.01 4.96 12 4.92 11.84 4.77C11.69 4.65 11.53 4.61 11.34 4.66Z" fill="#70232F" fill-opacity="1.000000" fill-rule="nonzero"/>
</svg>
