<svg width="14" height="10" viewBox="0 0 14 10" fill="none" xmlns="http://www.w3.org/2000/svg">
    <path d="M13.1101 9.65005C13.2177 9.65005 13.3194 9.61147 13.3872 9.54489C13.4549 9.47835 13.4813 9.39106 13.4591 9.30729L13.2345 8.46083C13.3624 8.36229 13.4428 8.2247 13.4428 8.07172C13.4428 7.91068 13.3527 7.76785 13.2129 7.66861V4.72916L12.3126 5.17287V7.66861C12.1728 7.76785 12.0827 7.91068 12.0827 8.07172C12.0827 8.22472 12.1631 8.36231 12.291 8.46083L12.0664 9.30729C12.0442 9.39108 12.0706 9.47837 12.1383 9.54489C12.2061 9.61143 12.3078 9.65005 12.4154 9.65005H13.1101ZM13.4153 3.01388L7.55793 0.12639C7.38639 0.0422422 7.19301 0 6.99963 0C6.80625 0 6.61273 0.0422068 6.44223 0.12639L0.584774 3.01388C0.428367 3.09095 0.333374 3.22708 0.333374 3.37358C0.333374 3.52011 0.428367 3.65628 0.584774 3.73347L6.4422 6.62099C6.61271 6.70522 6.80622 6.74738 6.9996 6.74738C7.19298 6.74738 7.38639 6.70517 7.5579 6.62099L13.4153 3.73347C13.5717 3.65631 13.6667 3.52011 13.6667 3.37358C13.6667 3.22708 13.5717 3.09091 13.4153 3.01388ZM6.9996 7.46435C6.63474 7.46435 6.27863 7.38365 5.96822 7.23065L2.55156 5.5462V8.44667C2.55156 9.3051 4.54395 10 6.9996 10C9.45613 10 11.4484 9.30508 11.4484 8.44667V5.5462L8.03183 7.23065C7.72143 7.38365 7.36447 7.46435 6.9996 7.46435Z" fill="#70232F"/>
</svg>
