<svg width="13.333313" height="10.000000" viewBox="0 0 13.3333 10" fill="none" xmlns="http://www.w3.org/2000/svg">
    <path id="Vector" d="M12.77 9.65C12.88 9.65 12.98 9.61 13.05 9.54C13.12 9.47 13.14 9.39 13.12 9.3L12.9 8.46C13.02 8.36 13.1 8.22 13.1 8.07C13.1 7.91 13.01 7.76 12.87 7.66L12.87 4.72L11.97 5.17L11.97 7.66C11.83 7.76 11.74 7.91 11.74 8.07C11.74 8.22 11.82 8.36 11.95 8.46L11.73 9.3C11.71 9.39 11.73 9.47 11.8 9.54C11.87 9.61 11.97 9.65 12.08 9.65L12.77 9.65ZM13.08 3.01L7.22 0.12C7.05 0.04 6.85 0 6.66 0C6.47 0 6.27 0.04 6.1 0.12L0.25 3.01C0.09 3.09 0 3.22 0 3.37C0 3.52 0.09 3.65 0.25 3.73L6.1 6.62C6.27 6.7 6.47 6.74 6.66 6.74C6.85 6.74 7.05 6.7 7.22 6.62L13.08 3.73C13.23 3.65 13.33 3.52 13.33 3.37C13.33 3.22 13.23 3.09 13.08 3.01ZM6.66 7.46C6.3 7.46 5.94 7.38 5.63 7.23L2.21 5.54L2.21 8.44C2.21 9.3 4.21 10 6.66 10C9.12 10 11.11 9.3 11.11 8.44L11.11 5.54L7.69 7.23C7.38 7.38 7.03 7.46 6.66 7.46Z" fill="#70232F" fill-opacity="1.000000" fill-rule="nonzero"/>
</svg>
